HIERARCHY
ROOT HipCenter
{
    OFFSET 0.0 0.0 -0.0
    CHANNELS 6 Xposition Yposition Zposition Zrotation Xrotation Yrotation
    JOINT Spine
    {
        OFFSET 0.0 11.546579360961914 0.0
        CHANNELS 3 Zrotation Xrotation Yrotation
        JOINT ShoulderCenter
        {
            OFFSET 0.0 32.94481658935547 0.0
            CHANNELS 3 Zrotation Xrotation Yrotation
            JOINT LeftShoulder
            {
                OFFSET 18.95941162109375 0.0 0.0
                CHANNELS 3 Zrotation Xrotation Yrotation
                JOINT LeftElbow
                {
                    OFFSET 28.856807708740234 0.0 0.0
                    CHANNELS 3 Zrotation Xrotation Yrotation
                    JOINT LeftWrist
                    {
                        OFFSET 29.326324462890625 0.0 0.0
                        CHANNELS 3 Zrotation Xrotation Yrotation
                        JOINT LeftHand
                        {
                            OFFSET 3.774109363555908 0.0 0.0
                            CHANNELS 3 Zrotation Xrotation Yrotation
                            End Site
                            {
                                OFFSET 1.5096436738967896 0.0 0.0
                            }
                        }
                    }
                }
            }
            JOINT RightShoulder
            {
                OFFSET -18.95941162109375 0.0 0.0
                CHANNELS 3 Zrotation Xrotation Yrotation
                JOINT RightElbow
                {
                    OFFSET -28.856807708740234 0.0 0.0
                    CHANNELS 3 Zrotation Xrotation Yrotation
                    JOINT RightWrist
                    {
                        OFFSET -29.326324462890625 0.0 0.0
                        CHANNELS 3 Zrotation Xrotation Yrotation
                        JOINT RightHand
                        {
                            OFFSET -3.774109363555908 0.0 0.0
                            CHANNELS 3 Zrotation Xrotation Yrotation
                            End Site
                            {
                                OFFSET -1.5096436738967896 0.0 0.0
                            }
                        }
                    }
                }
            }
            End Site
            {
                OFFSET 0.0 13.177925109863281 0.0
            }
        }
    }
    JOINT LeftHip
    {
        OFFSET 13.482994079589844 0.0 0.0
        CHANNELS 3 Zrotation Xrotation Yrotation
        JOINT LeftKnee
        {
            OFFSET 0.0 -41.18231964111328 0.0
            CHANNELS 3 Zrotation Xrotation Yrotation
            JOINT LeftAnkle
            {
                OFFSET 0.0 -42.33604431152344 0.0
                CHANNELS 3 Zrotation Xrotation Yrotation
                JOINT LeftFoot
                {
                    OFFSET 0.0 -13.48965835571289 0.0
                    CHANNELS 3 Zrotation Xrotation Yrotation
                    End Site
                    {
                        OFFSET 0.0 0.0 5.3958635330200195
                    }
                }
            }
        }
    }
    JOINT RightHip
    {
        OFFSET -13.482994079589844 0.0 0.0
        CHANNELS 3 Zrotation Xrotation Yrotation
        JOINT RightKnee
        {
            OFFSET 0.0 -41.18231964111328 0.0
            CHANNELS 3 Zrotation Xrotation Yrotation
            JOINT RightAnkle
            {
                OFFSET 0.0 -42.33604431152344 0.0
                CHANNELS 3 Zrotation Xrotation Yrotation
                JOINT RightFoot
                {
                    OFFSET 0.0 -13.48965835571289 0.0
                    CHANNELS 3 Zrotation Xrotation Yrotation
                    End Site
                    {
                        OFFSET 0.0 0.0 5.3958635330200195
                    }
                }
            }
        }
    }
}
MOTION
Frames: 9
Frame Time: 0.03333333333333333
80.80000305175781 -0.30000001192092896 -71.30000305175781 22.27028242859905 -11.45902541278234 -127.87896768515368 3.4290005719556307 3.9343954077812398 -0.14306593165320053 1.0583979431479023e-06 -1.3674736625868367e-06 -13.428980550267728 137.18419179119664 -6.204774403294707 -117.70319540722885 7.047468792459036e-07 1.5397814492839073e-08 98.9020782468121 7.152940451943787e-07 -18.486963024957802 34.8555520596392 -7.951386703658792e-16 -1.5902773407317584e-15 1.5902773407317584e-15 -97.06278595286084 40.82237379974139 134.31511164896858 3.0375699966344823e-06 1.0644753494485907e-06 -101.68605976184243 2.284583178779012e-05 -81.36544459814888 -41.384906398606056 0.0 0.0 6.3611093629270335e-15 17.331612823323724 -39.18001299943861 -1.3704848568744659 -26.91834925361058 31.547497160319 -23.908041385088488 102.14609524509994 0.259042557505854 -179.74610903777184 -6.3611093629270335e-15 0.0 0.0 -8.916425987345583 -43.960670569869194 -4.666579919864285 10.484138974813805 35.393396908240646 37.97042002848127 -91.49423135810459 -14.9351909367225 -164.23082115789722 6.3611093629270335e-15 0.0 0.0
81.5 -0.5 -71.30000305175781 24.27443203961731 -13.566255488567656 -130.50575297544927 4.729257586527318 2.783840659218796 -0.10997093373091812 3.8962131636202794e-07 -3.937086279507709e-08 -13.3636134159573 140.95123087160033 -3.621967127307737 -109.46734761523865 4.428441791979006e-06 -1.8552697777561186e-06 94.40037961266792 -4.461033537580849e-06 -23.711665330699546 33.96108266665349 3.578124016646457e-15 0.0 0.0 -98.05861545343538 37.55481774807809 131.95831211083635 -1.921775446411056e-07 -2.738242507842812e-06 -103.60303793317806 -6.987149114997488e-06 -79.4237765717877 -42.5966832737098 1.5902773407317584e-15 6.361109362927033e-15 -1.5902773407317584e-15 20.63723607368615 -42.61583920643369 2.6380969455690493 -27.946712805371277 34.32724098432163 -25.62002317840412 101.64579170453523 4.1812252487813835 -175.6805910779864 6.3611093629270335e-15 -4.4139062980501586e-32 -7.951386703658792e-16 -8.247481017332245 -48.385587707321434 -8.78028212448244 8.872801696150239 37.0512273093962 40.510282633017276 -89.10265425822301 -18.738603967563748 -158.92281506517827 -6.3611093629270335e-15 0.0 0.0
82.4000015258789 -0.8999999761581421 -71.30000305175781 26.10486299787096 -15.55597350880252 -132.75066737390975 5.706981968003903 2.450755681093306 -0.08716138908895416 9.87627695261066e-07 1.0311205104317698e-06 -12.633074611091791 142.49483504625252 -0.568610423859728 -103.29970524193624 2.290452354579969e-06 1.3323521762555906e-06 87.22020062326956 2.027988239857119e-06 -15.862131077097152 35.61851482595908 9.541664044390549e-15 3.1805546814635164e-15 -2.648343778830095e-31 -100.50827440211489 34.81347887492366 130.44358715153595 -2.3398236409886063e-06 9.960757160701397e-07 -104.71951817751169 1.7846574171515279e-06 -73.81614705359856 -52.60410343052596 1.5902773407317584e-15 3.1805546814635168e-15 3.1805546814635168e-15 25.24518863659273 -46.286251404465425 10.615636690978905 -27.406617057081608 39.423946332269495 -30.23435617130573 102.7562601189954 5.773610369242513 -174.1028250704603 1.1034765745125397e-32 -7.951386703658792e-16 1.5902773407317584e-15 -6.575111931445469 -52.7090595604654 -12.867448559064465 5.643448471911686 38.900277762621975 44.110007590480635 -87.77495416730224 -22.16855077337746 -154.6661601016409 6.3611093629270335e-15 1.7655625192200634e-31 3.1805546814635168e-15
83.30000305175781 -1.3000000715255737 -71.20000457763672 28.19500049453887 -17.64119670340055 -134.75795902189827 7.629939746336985 2.2731655514518145 -0.09739519897001381 -1.1297585607380164e-06 -1.2246989648281007e-06 -12.097388220094683 140.6794237306858 2.7144389248944543 -96.76500930749772 -3.604948711129354e-08 1.6016317913020575e-06 82.78176570037274 4.7609450439730795e-07 -40.42595754185934 25.488257116619344 -7.951386703658793e-15 -7.951386703658794e-16 7.951386703658794e-16 -98.60560540987542 35.631153029422286 124.64721519859395 3.751582446658295e-06 -1.7751524626118543e-06 -107.83932765958045 -5.3107067645247575e-06 -80.73478232980418 -39.30127855091317 -1.5902773407317584e-15 2.2069531490250793e-32 -1.5902773407317584e-15 31.45258585122742 -50.18654554014332 20.741568842254374 -26.016144010878705 45.58471632621291 -36.38326816384505 102.01906435373249 7.457762587670604 -171.8493087799029 0.0 9.93923337957349e-17 0.0 -3.982232088345278 -57.07716223817566 -15.083862061012072 2.5753320174855703 40.24680114217234 47.125972606405476 -86.92031080698003 -25.528456456570392 -150.9488045148351 0.0 0.0 3.1805546814635168e-15
84.0999984741211 -2.0 -71.0 29.41561457361526 -20.338349541029846 -136.7809434570962 7.869464379034027 2.4953138199506255 -0.12713784612089377 -1.322090487150907e-06 -3.7017261659201314e-07 -10.933515831441397 137.1840059133512 4.532534543166965 -90.1538147857889 2.80629565246084e-07 9.517406652915507e-07 80.08468294115026 4.636314698269677e-06 -0.7652600486265096 32.87969638212087 -7.553817368475852e-15 0.0 0.0 -98.62100823519486 35.61408113487368 120.67464426828901 -2.2529992277755893e-07 2.330478650894226e-06 -109.892987732191 -6.50802025107075e-06 -80.7747404880618 -43.486210243581 1.5902773407317584e-15 -3.1805546814635168e-15 -3.1805546814635168e-15 38.624979678157636 -54.069053864649405 39.59237574964123 -13.851089327459857 54.909184153409115 -54.97779182760778 101.51089408773288 4.838607764842381 -174.53964187314656 -6.361109362927033e-15 0.0 0.0 -1.9666480009500396 -61.75377602077103 -17.166319243632714 -1.0657947754283985 42.4013799214872 49.72515615478694 -87.45668108966312 -30.00871986193827 -146.74810896894238 3.1805546814635168e-15 -8.827812596100317e-32 -3.1805546814635168e-15
84.69999694824219 -3.0999999046325684 -70.70000457763672 30.68517985072576 -23.038411657026835 -137.82259239666712 7.9615852400670075 2.8866902661136686 -0.11381591487927814 1.139010937700191e-06 1.6781230501677393e-06 -10.649103955890608 134.21244860482108 6.3073364786737045 -86.41734395402956 3.1438889253603177e-06 -6.826450062992943e-07 83.52260563896897 1.7364251275002793e-06 4.478738225215864 29.813685761130635 6.9077671988035744e-15 9.586452741077688e-32 1.590277340731758e-15 -95.2396436268592 37.161600645752976 113.32618692425034 2.8018659228971265e-06 2.0627678046604956e-07 -115.94493002010766 -179.9999989540706 -52.09944864890021 145.37678769592327 6.3611093629270335e-15 -3.1805546814635168e-15 -3.1805546814635168e-15 44.085538159472534 -58.22328792605721 53.25412831575329 3.3195494471409575 60.434883661681425 -74.94226488570449 98.39489123522186 -3.488325000059 175.4017992992235 1.1034765745125397e-32 1.5902773407317584e-15 -7.951386703658792e-16 -2.976556067650383 -67.1494182192417 -23.892593059509263 -6.456657069459384 45.796063005763195 57.05712441592352 -88.56552304513417 -31.68032868295946 -145.88750985767027 3.1805546814635168e-15 6.3611093629270335e-15 -6.3611093629270335e-15
85.0999984741211 -4.699999809265137 -70.30000305175781 29.744865130232 -25.50378907304197 -140.69821886709352 6.5319360642030695 5.108130783451866 -0.1004857972929865 -3.019831333066779e-06 -4.606697040791363e-06 -7.342278194850868 129.08575336776556 6.035861410241926 -82.02816590849798 3.884450056473578e-06 1.5980153227316902e-06 85.36883285077562 -2.0330015625844923e-06 -2.1269825611248305 35.494244488814125 -2.0375428428125655e-15 -3.975693351829396e-16 7.951386703658792e-16 -94.84815469346914 39.41573187813733 107.59562515502662 -9.134911739282896e-07 7.625566580811041e-07 -112.29511998570761 -2.4811901097917993e-05 -87.92440716562496 -41.70785053455002 0.0 0.0 0.0 48.9648051260293 -60.2732329950433 66.0349479351921 21.91491417175022 62.36303236523893 -96.08744576239492 98.24212806243824 -14.582813427609457 160.72053366046768 -6.3611093629270335e-15 -3.1805546814635168e-15 -1.3557735531824466e-15 -2.7420698769146443 -71.641440371891 -27.689157270272148 -13.517851339039597 49.62510154638689 64.353844852493 -89.97103371535015 -34.182185110019894 -143.7323769864479 3.1805546814635168e-15 8.827812596100317e-32 3.1805546814635168e-15
85.5 -6.700000286102295 -70.0 29.8141520253592 -27.324778866817404 -141.6688859321924 7.0037047731641575 5.959656783849813 -0.0906409865086371 7.8199985820585e-07 -1.344868713924558e-06 -7.130644687402356 124.84189045379048 7.298293853632419 -77.64179896936886 3.889108207692153e-06 -5.605429731396217e-07 83.37166695135593 2.8197755899168636e-06 -3.5324985809044236 40.272378878525764 -2.1866313435061676e-15 -1.9878466759146977e-16 -3.793200724886855e-33 -90.767803229431 40.582782859144785 97.27334017688545 -4.804568643209406e-06 -2.308491696056782e-06 -112.02472100231715 179.9999929003261 -82.42604584452654 142.37447319078169 0.0 0.0 -3.1805546814635176e-15 55.62026857798034 -63.60982167325832 81.39373358191544 42.2292694458939 60.82472530489114 -116.47815646332742 98.33427544000001 -26.46381654029427 147.41786421029911 6.3611093629270335e-15 6.3611093629270335e-15 -2.981770013872047e-15 -8.22919135817113 -76.91815725536121 -41.35203184489183 -26.99107181188206 52.33641694612696 80.58566736741092 -92.37359115663817 -34.66671384617093 -145.54793606988375 0.0 0.0 0.0
85.69999694824219 -9.300000190734863 -69.80000305175781 28.835468929206378 -28.429047660300114 -143.56188763611803 4.979728056035851 8.12136635580117 0.138134172016331 6.286849290848413e-07 -1.9872856974717505e-06 -5.375958198085126 122.80274936461299 7.488439406942035 -71.33534168370473 2.870985550102879e-06 5.577424060163304e-07 81.43890914709829 -1.365095206630071e-06 -2.7573467340509907 42.45342432000383 5.690211109805822e-15 1.9741885590888405e-32 3.9756933518293955e-16 -86.68897083105719 42.3494991148371 88.35560953246859 -6.990354235959978e-06 -2.6469041019211195e-06 -111.43208415007621 179.99999325036728 -78.75203873182859 138.1020197120192 5.29668755766019e-31 6.361109362927033e-15 -9.541664044390549e-15 61.275311147362935 -65.23492251603346 91.92052360445004 54.771978889246974 60.01870637077346 -129.02800677407802 99.10837441989518 -33.42564347901028 139.9620449001384 0.0 0.0 -1.1927080055488184e-15 -13.256395447371876 -81.15483504346413 -49.702861910027785 -38.491354807336386 55.384157484826176 92.37089840342183 -94.40340647979646 -34.570433706654285 -144.97738280205778 3.1805546814635176e-15 -6.361109362927035e-15 -3.1805546814635176e-15
